<?xml version="1.0" encoding="iso-8859-1"?>
<!-- Generator: Adobe Illustrator 19.0.0, SVG Export Plug-In . SVG Version: 6.00 Build 0)  -->
<svg version="1.1" id="Capa_1" xmlns="http://www.w3.org/2000/svg" xmlns:xlink="http://www.w3.org/1999/xlink" x="0px" y="0px"
	 viewBox="0 0 512 512" style="enable-background:new 0 0 512 512;" xml:space="preserve">
<g>
	<g>
		<path d="M437.02,74.98c-35.306-35.306-79.114-59.013-126.803-69.244l-82.003,142.268l259.948-0.167
			C475.686,121.1,458.503,96.465,437.02,74.98z"/>
	</g>
</g>
<g>
	<g>
		<path d="M499.887,177.83l-164.242,0.105l130.037,225.042C495.782,360.228,512,309.361,512,256
			C512,229.065,507.851,202.771,499.887,177.83z"/>
	</g>
</g>
<g>
	<g>
		<path d="M256,0C187.62,0,123.332,26.629,74.98,74.98c-2.887,2.887-5.69,5.834-8.421,8.831l82.067,142.199L278.335,0.974
			C270.948,0.34,263.501,0,256,0z"/>
	</g>
</g>
<g>
	<g>
		<path d="M363.422,285.969L233.548,511.016C240.973,511.657,248.46,512,256,512c68.38,0,132.668-26.629,181.02-74.98
			c2.921-2.921,5.759-5.903,8.52-8.938L363.422,285.969z"/>
	</g>
</g>
<g>
	<g>
		<path d="M23.733,363.935c12.485,26.825,29.703,51.54,51.248,73.085c35.278,35.277,79.043,58.975,126.687,69.22l82.081-142.232
			L23.733,363.935z"/>
	</g>
</g>
<g>
	<g>
		<path d="M46.401,108.902C16.247,151.676,0,202.589,0,256c0,26.849,4.123,53.061,12.037,77.932l164.262,0.046L46.401,108.902z"/>
	</g>
</g>
<g>
</g>
<g>
</g>
<g>
</g>
<g>
</g>
<g>
</g>
<g>
</g>
<g>
</g>
<g>
</g>
<g>
</g>
<g>
</g>
<g>
</g>
<g>
</g>
<g>
</g>
<g>
</g>
<g>
</g>
</svg>
