<?xml version="1.0" encoding="iso-8859-1"?>
<!-- Generator: Adobe Illustrator 19.0.0, SVG Export Plug-In . SVG Version: 6.00 Build 0)  -->
<svg version="1.1" id="Capa_1" xmlns="http://www.w3.org/2000/svg" xmlns:xlink="http://www.w3.org/1999/xlink" x="0px" y="0px"
	 viewBox="0 0 512 512" style="enable-background:new 0 0 512 512;" xml:space="preserve">
<path style="fill:#FF4C67;" d="M257.086,0.545C116.3,0.545,2.171,114.675,2.171,255.46S116.3,510.374,257.086,510.374
	S512,396.245,512,255.46S397.871,0.545,257.086,0.545z M355.228,312.751l-99.222,57.291h-0.011l-99.222-57.291V198.169
	l99.233-57.291l99.222,57.291V312.751z"/>
<path style="fill:#B3D662;" d="M355.228,312.751v178.753c-30.514,12.854-64.042,19.95-99.222,19.95
	c-58.155,0-111.784-19.389-154.763-52.074l154.753-89.339h0.011L355.228,312.751z"/>
<path style="fill:#D91E3B;" d="M257.086,0.545c-0.361,0-0.719,0.012-1.08,0.014v140.319l99.222,57.291v114.582l-99.222,57.291
	V510.36c0.361,0.001,0.719,0.014,1.08,0.014C397.871,510.374,512,396.245,512,255.46S397.871,0.545,257.086,0.545z"/>
<path style="fill:#8AD8ED;" d="M156.772,21.025v293.346L1.987,225C13.513,132.788,74.087,55.817,156.772,21.025z"/>
<path style="fill:#27B5D1;" d="M255.995,370.042l-154.753,89.339C39.717,412.643,0,338.685,0,255.46
	c0-10.866,0.68-21.571,1.987-32.08l154.785,89.371L255.995,370.042z"/>
<path style="fill:#FFD059;" d="M510.013,287.519c-11.525,92.223-72.1,169.194-154.785,203.986V198.169L510.013,287.519z"/>
<path style="fill:#FE872B;" d="M512,255.46c0,10.855-0.681,21.56-1.987,32.059l-154.785-89.35l-99.222-57.291l154.753-89.35
	C472.283,98.266,512,172.224,512,255.46z"/>
<path style="fill:#5DAD2F;" d="M355.228,490.784V312.751l-99.222,57.291V510.36c0.361,0.001,0.719,0.014,1.08,0.014
	C291.868,510.374,325.018,503.398,355.228,490.784z"/>
<g>
</g>
<g>
</g>
<g>
</g>
<g>
</g>
<g>
</g>
<g>
</g>
<g>
</g>
<g>
</g>
<g>
</g>
<g>
</g>
<g>
</g>
<g>
</g>
<g>
</g>
<g>
</g>
<g>
</g>
</svg>
